<svg xmlns="http://www.w3.org/2000/svg" width="215" height="64" viewBox="0 0 215 64">
  <g id="Group_2807" data-name="Group 2807" transform="translate(-140 -60)">
    <g id="Group_1" data-name="Group 1" transform="translate(-139.258 -204.4)">
      <path id="Path_1326" data-name="Path 1326" d="M294.417,264.4h6.829l15.159,34.7H311.3a5.739,5.739,0,0,1-1.538-.205,5.1,5.1,0,0,1-1.369-.608,5.417,5.417,0,0,1-1.138-.973,4.776,4.776,0,0,1-.823-1.295l-1.695-3.85h-13.8l-1.646,3.85a4.373,4.373,0,0,1-.811,1.216,6.261,6.261,0,0,1-1.175.981,5.574,5.574,0,0,1-1.4.653,5.106,5.106,0,0,1-1.5.229h-5.133Zm-.315,20.584h7.41l-3.026-7.265a7.524,7.524,0,0,1-.34-.945q-.122-.435-.193-.775a4.233,4.233,0,0,1-.121-.729q-.049.339-.146.75-.073.34-.205.776t-.327.92Z" transform="translate(0 -0.003)" fill="#36175e"/>
      <path id="Path_1327" data-name="Path 1327" d="M371.229,267.482a4.794,4.794,0,0,1,.823-1.3,5.417,5.417,0,0,1,1.138-.972,5.09,5.09,0,0,1,1.368-.608,5.7,5.7,0,0,1,1.538-.205h5.133l-15.156,34.7h-6.829l-15.16-34.7h5.107a5.089,5.089,0,0,1,1.5.23,5.592,5.592,0,0,1,1.4.654,6.3,6.3,0,0,1,1.175.981,4.374,4.374,0,0,1,.811,1.216l7.895,18.138a4.895,4.895,0,0,1,.279.86q.108.473.205.884.1.486.169.972a5.934,5.934,0,0,1,.121-.92c.049-.275.112-.566.193-.872a5.075,5.075,0,0,1,.315-.872Z" transform="translate(-32.351 0)" fill="#36175e"/>
      <path id="Path_1328" data-name="Path 1328" d="M512.439,299.1H504.52V264.4h7.919Zm3.341-19.349,8.355-12.665a7.465,7.465,0,0,1,.8-.993,6.629,6.629,0,0,1,.993-.86,5.219,5.219,0,0,1,1.126-.608,3.364,3.364,0,0,1,1.223-.229H535.4l-10.407,15.815a2.565,2.565,0,0,1-.786.75,3.451,3.451,0,0,1-.545.291.9.9,0,0,1,.181.073,2.472,2.472,0,0,1,.35.205,3.516,3.516,0,0,1,.412.34,2.965,2.965,0,0,1,.387.448l11.14,16.78H529a3.84,3.84,0,0,1-2.4-.738,7.926,7.926,0,0,1-1.792-2l-9.033-13.586a3.638,3.638,0,0,0-.581-.7,3.842,3.842,0,0,0-.593-.459,4.224,4.224,0,0,0-.472-.254,1.189,1.189,0,0,1-.218-.11,1.437,1.437,0,0,0,.218-.072,2.98,2.98,0,0,0,.472-.243,3.82,3.82,0,0,0,.593-.461A3.368,3.368,0,0,0,515.781,279.756Z" transform="translate(-112.414 0)" fill="#36175e"/>
      <path id="Path_1329" data-name="Path 1329" d="M589.918,264.4h6.829l15.16,34.7H606.8a5.738,5.738,0,0,1-1.538-.205,5.1,5.1,0,0,1-1.368-.608,5.417,5.417,0,0,1-1.138-.973,4.766,4.766,0,0,1-.824-1.295l-1.695-3.85H586.43l-1.648,3.857a4.38,4.38,0,0,1-.811,1.216,6.3,6.3,0,0,1-1.175.981,5.587,5.587,0,0,1-1.4.653,5.1,5.1,0,0,1-1.5.23h-5.133Zm-.315,20.584h7.41l-3.028-7.265a7.6,7.6,0,0,1-.339-.945c-.081-.291-.145-.549-.193-.775a4.231,4.231,0,0,1-.121-.729q-.049.339-.146.75-.073.34-.205.776t-.327.92Z" transform="translate(-147.465 -0.003)" fill="#36175e"/>
      <path id="Path_1330" data-name="Path 1330" d="M664.807,299.107h-7.919V264.4h14a10.836,10.836,0,0,1,4.564.981,12.032,12.032,0,0,1,3.729,2.64,12.535,12.535,0,0,1,2.506,3.851,11.9,11.9,0,0,1,0,9.178,12.547,12.547,0,0,1-2.506,3.851,12.039,12.039,0,0,1-3.729,2.64,10.837,10.837,0,0,1-4.564.981h-6.08Zm6.1-18.526a2.936,2.936,0,0,0,1.4-.365,4.378,4.378,0,0,0,1.2-.944,4.769,4.769,0,0,0,.835-1.321,3.681,3.681,0,0,0,0-2.979,4.774,4.774,0,0,0-.835-1.319,4.38,4.38,0,0,0-1.2-.945,2.935,2.935,0,0,0-1.4-.365h-6.1v8.233Z" transform="translate(-188.451 -0.002)" fill="#36175e"/>
      <path id="Path_1331" data-name="Path 1331" d="M441.7,265.206a1.353,1.353,0,0,1,.521.4l.038.048c.022.029.042.061.061.092s.032.054.046.082.028.055.04.084.031.076.043.115.017.045.023.068a1.273,1.273,0,0,1,.04.2l2.348,19.6h0a9.812,9.812,0,0,0-2.545-.294,10.648,10.648,0,0,0-1.979.167c-.182.034-.357.073-.52.116-.243.063-.475.135-.692.211s-.422.158-.623.243a9.832,9.832,0,0,1-4.61,1.072h0a10.344,10.344,0,0,1-2.134-.2c-.193-.04-.376-.086-.55-.136l2.423-20.775a1.409,1.409,0,0,1,.04-.2c.006-.023.015-.046.023-.069s.027-.078.043-.115.026-.056.041-.084.03-.055.046-.082a1.006,1.006,0,0,1,.061-.092l.038-.048a1.362,1.362,0,0,1,.521-.4h0a18.048,18.048,0,1,0,7.259,0Z" transform="translate(-70.247 -0.402)" fill="#36175e"/>
    </g>
    <text id="Admin" transform="translate(289 117)" fill="#36175e" font-size="20" font-family="Poppins-Medium, Poppins" font-weight="500"><tspan x="0" y="0">Admin</tspan></text>
  </g>
</svg>
